<svg width="262" height="15" viewBox="0 0 262 15" fill="none" xmlns="http://www.w3.org/2000/svg">
<path d="M11.4102 14H8.81738L2.52441 3.74316H2.44531C2.46875 4.08887 2.48926 4.45508 2.50684 4.8418C2.53027 5.22852 2.54785 5.62695 2.55957 6.03711C2.57715 6.44727 2.5918 6.86328 2.60352 7.28516V14H0.6875V1.15039H3.2627L9.54688 11.3369H9.6084C9.59668 11.0381 9.58203 10.6953 9.56445 10.3086C9.54688 9.92188 9.5293 9.52344 9.51172 9.11328C9.5 8.69727 9.49121 8.2959 9.48535 7.90918V1.15039H11.4102V14ZM22.0625 14H14.7852V1.15039H22.0625V2.92578H16.8945V6.41504H21.7373V8.18164H16.8945V12.2158H22.0625V14ZM34.3232 14H31.9238L28.6895 8.73535L25.4375 14H23.1787L27.4502 7.33789L23.4688 1.15039H25.7979L28.7861 6.01953L31.7568 1.15039H34.0156L30.0166 7.39941L34.3232 14ZM40.5107 14H38.3926V2.94336H34.6309V1.15039H44.2637V2.94336H40.5107V14ZM56.0938 7.02148H60.8926V13.4727C60.2188 13.6953 59.5215 13.8682 58.8008 13.9912C58.0801 14.1143 57.2715 14.1758 56.375 14.1758C55.0684 14.1758 53.9609 13.918 53.0527 13.4023C52.1504 12.8809 51.4648 12.1279 50.9961 11.1436C50.5273 10.1533 50.293 8.96094 50.293 7.56641C50.293 6.22461 50.5537 5.06152 51.0752 4.07715C51.5967 3.08691 52.3555 2.32227 53.3516 1.7832C54.3477 1.23828 55.5547 0.96582 56.9727 0.96582C57.6699 0.96582 58.3438 1.03613 58.9941 1.17676C59.6504 1.31152 60.251 1.49902 60.7959 1.73926L60.0576 3.47949C59.624 3.27441 59.1377 3.10156 58.5986 2.96094C58.0596 2.82031 57.5 2.75 56.9199 2.75C56 2.75 55.2061 2.94922 54.5381 3.34766C53.876 3.74609 53.3662 4.30859 53.0088 5.03516C52.6514 5.75586 52.4727 6.6084 52.4727 7.59277C52.4727 8.54785 52.6162 9.38574 52.9033 10.1064C53.1904 10.8271 53.6387 11.3896 54.248 11.7939C54.8633 12.1924 55.6572 12.3916 56.6299 12.3916C57.1162 12.3916 57.5293 12.3652 57.8691 12.3125C58.209 12.2598 58.5225 12.2012 58.8096 12.1367V8.82324H56.0938V7.02148ZM71.2461 14H63.9688V1.15039H71.2461V2.92578H66.0781V6.41504H70.9209V8.18164H66.0781V12.2158H71.2461V14ZM84.7461 14H82.1533L75.8604 3.74316H75.7812C75.8047 4.08887 75.8252 4.45508 75.8428 4.8418C75.8662 5.22852 75.8838 5.62695 75.8955 6.03711C75.9131 6.44727 75.9277 6.86328 75.9395 7.28516V14H74.0234V1.15039H76.5986L82.8828 11.3369H82.9443C82.9326 11.0381 82.918 10.6953 82.9004 10.3086C82.8828 9.92188 82.8652 9.52344 82.8477 9.11328C82.8359 8.69727 82.8271 8.2959 82.8213 7.90918V1.15039H84.7461V14ZM96.084 14L94.8271 10.4316H89.9141L88.6572 14H86.4336L91.2148 1.09766H93.5527L98.3252 14H96.084ZM94.2822 8.62109L93.0605 5.10547C93.0137 4.95312 92.9463 4.73926 92.8584 4.46387C92.7705 4.18262 92.6826 3.89844 92.5947 3.61133C92.5068 3.31836 92.4336 3.07227 92.375 2.87305C92.3164 3.11328 92.2432 3.38281 92.1553 3.68164C92.0732 3.97461 91.9912 4.25 91.9092 4.50781C91.833 4.76562 91.7744 4.96484 91.7334 5.10547L90.5029 8.62109H94.2822ZM103.634 1.15039C104.741 1.15039 105.655 1.28516 106.376 1.55469C107.103 1.82422 107.642 2.23438 107.993 2.78516C108.351 3.33594 108.529 4.03613 108.529 4.88574C108.529 5.51855 108.412 6.05762 108.178 6.50293C107.943 6.94824 107.636 7.31738 107.255 7.61035C106.874 7.90332 106.467 8.1377 106.033 8.31348L109.681 14H107.299L104.196 8.84961H102.131V14H100.021V1.15039H103.634ZM103.493 2.9082H102.131V7.10938H103.59C104.568 7.10938 105.277 6.92773 105.717 6.56445C106.162 6.20117 106.385 5.66504 106.385 4.95605C106.385 4.21191 106.147 3.68457 105.673 3.37402C105.204 3.06348 104.478 2.9082 103.493 2.9082ZM118.795 14H111.518V1.15039H118.795V2.92578H113.627V6.41504H118.47V8.18164H113.627V12.2158H118.795V14ZM126.028 14H123.91V2.94336H120.148V1.15039H129.781V2.94336H126.028V14ZM131.75 14V1.15039H133.859V14H131.75ZM148.66 7.55762C148.66 8.54785 148.534 9.4502 148.282 10.2646C148.036 11.0732 147.664 11.7705 147.166 12.3564C146.668 12.9365 146.044 13.3848 145.294 13.7012C144.544 14.0176 143.665 14.1758 142.657 14.1758C141.632 14.1758 140.741 14.0176 139.985 13.7012C139.235 13.3848 138.611 12.9336 138.113 12.3477C137.621 11.7617 137.252 11.0615 137.006 10.2471C136.76 9.43262 136.637 8.53027 136.637 7.54004C136.637 6.21582 136.854 5.06152 137.287 4.07715C137.727 3.08691 138.392 2.31934 139.282 1.77441C140.179 1.22363 141.31 0.948242 142.675 0.948242C144.011 0.948242 145.121 1.2207 146.006 1.76562C146.891 2.31055 147.553 3.07812 147.992 4.06836C148.438 5.05273 148.66 6.21582 148.66 7.55762ZM138.852 7.55762C138.852 8.54785 138.986 9.40625 139.256 10.1328C139.525 10.8535 139.938 11.4102 140.495 11.8027C141.058 12.1895 141.778 12.3828 142.657 12.3828C143.542 12.3828 144.263 12.1895 144.819 11.8027C145.376 11.4102 145.786 10.8535 146.05 10.1328C146.313 9.40625 146.445 8.54785 146.445 7.55762C146.445 6.05176 146.144 4.87402 145.54 4.02441C144.942 3.16895 143.987 2.74121 142.675 2.74121C141.796 2.74121 141.072 2.93457 140.504 3.32129C139.941 3.70801 139.525 4.26172 139.256 4.98242C138.986 5.69727 138.852 6.55566 138.852 7.55762ZM162.143 14H159.55L153.257 3.74316H153.178C153.201 4.08887 153.222 4.45508 153.239 4.8418C153.263 5.22852 153.28 5.62695 153.292 6.03711C153.31 6.44727 153.324 6.86328 153.336 7.28516V14H151.42V1.15039H153.995L160.279 11.3369H160.341C160.329 11.0381 160.314 10.6953 160.297 10.3086C160.279 9.92188 160.262 9.52344 160.244 9.11328C160.232 8.69727 160.224 8.2959 160.218 7.90918V1.15039H162.143V14ZM173.929 1.15039C175.587 1.15039 176.797 1.49023 177.559 2.16992C178.32 2.84961 178.701 3.80176 178.701 5.02637C178.701 5.58301 178.613 6.11328 178.438 6.61719C178.268 7.11523 177.986 7.55762 177.594 7.94434C177.201 8.3252 176.683 8.62695 176.038 8.84961C175.399 9.07227 174.611 9.18359 173.674 9.18359H172.303V14H170.193V1.15039H173.929ZM173.788 2.89941H172.303V7.42578H173.454C174.116 7.42578 174.679 7.34961 175.142 7.19727C175.604 7.03906 175.956 6.79004 176.196 6.4502C176.437 6.11035 176.557 5.66211 176.557 5.10547C176.557 4.36133 176.331 3.80762 175.88 3.44434C175.435 3.08105 174.737 2.89941 173.788 2.89941ZM181.268 14V1.15039H183.377V12.207H188.835V14H181.268ZM199.021 14L197.765 10.4316H192.852L191.595 14H189.371L194.152 1.09766H196.49L201.263 14H199.021ZM197.22 8.62109L195.998 5.10547C195.951 4.95312 195.884 4.73926 195.796 4.46387C195.708 4.18262 195.62 3.89844 195.532 3.61133C195.444 3.31836 195.371 3.07227 195.312 2.87305C195.254 3.11328 195.181 3.38281 195.093 3.68164C195.011 3.97461 194.929 4.25 194.847 4.50781C194.771 4.76562 194.712 4.96484 194.671 5.10547L193.44 8.62109H197.22ZM207.415 14H205.297V2.94336H201.535V1.15039H211.168V2.94336H207.415V14ZM215.229 14H213.137V1.15039H220.396V2.92578H215.229V6.93359H220.062V8.7002H215.229V14ZM234.143 7.55762C234.143 8.54785 234.017 9.4502 233.765 10.2646C233.519 11.0732 233.146 11.7705 232.648 12.3564C232.15 12.9365 231.526 13.3848 230.776 13.7012C230.026 14.0176 229.147 14.1758 228.14 14.1758C227.114 14.1758 226.224 14.0176 225.468 13.7012C224.718 13.3848 224.094 12.9336 223.596 12.3477C223.104 11.7617 222.734 11.0615 222.488 10.2471C222.242 9.43262 222.119 8.53027 222.119 7.54004C222.119 6.21582 222.336 5.06152 222.77 4.07715C223.209 3.08691 223.874 2.31934 224.765 1.77441C225.661 1.22363 226.792 0.948242 228.157 0.948242C229.493 0.948242 230.604 1.2207 231.488 1.76562C232.373 2.31055 233.035 3.07812 233.475 4.06836C233.92 5.05273 234.143 6.21582 234.143 7.55762ZM224.334 7.55762C224.334 8.54785 224.469 9.40625 224.738 10.1328C225.008 10.8535 225.421 11.4102 225.978 11.8027C226.54 12.1895 227.261 12.3828 228.14 12.3828C229.024 12.3828 229.745 12.1895 230.302 11.8027C230.858 11.4102 231.269 10.8535 231.532 10.1328C231.796 9.40625 231.928 8.54785 231.928 7.55762C231.928 6.05176 231.626 4.87402 231.022 4.02441C230.425 3.16895 229.47 2.74121 228.157 2.74121C227.278 2.74121 226.555 2.93457 225.986 3.32129C225.424 3.70801 225.008 4.26172 224.738 4.98242C224.469 5.69727 224.334 6.55566 224.334 7.55762ZM240.515 1.15039C241.622 1.15039 242.536 1.28516 243.257 1.55469C243.983 1.82422 244.522 2.23438 244.874 2.78516C245.231 3.33594 245.41 4.03613 245.41 4.88574C245.41 5.51855 245.293 6.05762 245.059 6.50293C244.824 6.94824 244.517 7.31738 244.136 7.61035C243.755 7.90332 243.348 8.1377 242.914 8.31348L246.562 14H244.18L241.077 8.84961H239.012V14H236.902V1.15039H240.515ZM240.374 2.9082H239.012V7.10938H240.471C241.449 7.10938 242.158 6.92773 242.598 6.56445C243.043 6.20117 243.266 5.66504 243.266 4.95605C243.266 4.21191 243.028 3.68457 242.554 3.37402C242.085 3.06348 241.358 2.9082 240.374 2.9082ZM253.944 14L250.244 3.26855H250.165C250.183 3.50879 250.203 3.83691 250.227 4.25293C250.25 4.66895 250.271 5.11426 250.288 5.58887C250.306 6.06348 250.314 6.51758 250.314 6.95117V14H248.398V1.15039H251.36L254.92 11.4072H254.973L258.655 1.15039H261.608V14H259.596V6.8457C259.596 6.45312 259.602 6.02832 259.613 5.57129C259.631 5.11426 259.648 4.68066 259.666 4.27051C259.689 3.86035 259.707 3.53223 259.719 3.28613H259.648L255.808 14H253.944Z" fill="#3A68B8"/>
</svg>
